<?xml version="1.0" standalone="no"?>
<!DOCTYPE svg PUBLIC "-//W3C//DTD SVG 20010904//EN"
 "http://www.w3.org/TR/2001/REC-SVG-20010904/DTD/svg10.dtd">
<svg version="1.0" xmlns="http://www.w3.org/2000/svg"
 width="700.000000pt" height="700.000000pt" viewBox="0 0 700.000000 700.000000"
 preserveAspectRatio="xMidYMid meet">
<metadata>
Created by potrace 1.11, written by Peter Selinger 2001-2013
</metadata>
<g transform="translate(0.000000,700.000000) scale(0.100000,-0.100000)"
fill="#000000" stroke="none">
<path d="M6986 6993 c-3 -4 -14 -8 -24 -8 -17 -2 -1327 -438 -1367 -455 -11
-5 -92 -32 -180 -60 -88 -28 -167 -54 -175 -57 -17 -6 -3235 -1083 -3709
-1242 -168 -56 -307 -104 -309 -106 -3 -3 28 -37 69 -76 41 -39 208 -202 372
-363 164 -160 305 -295 313 -299 9 -5 37 4 77 26 34 19 98 53 142 77 44 23
112 59 150 80 39 20 111 59 160 85 50 26 104 55 120 65 17 9 73 40 125 67 113
60 524 280 1115 596 237 126 462 247 500 267 39 21 165 88 280 150 207 111
309 165 455 243 120 64 312 167 385 207 28 15 91 49 140 75 99 52 208 110 300
160 33 18 98 53 145 78 47 25 202 108 345 185 143 76 319 170 390 207 72 37
136 73 143 78 7 5 15 8 18 5 2 -3 -15 -22 -38 -43 -24 -21 -68 -61 -99 -89
-30 -28 -93 -85 -139 -126 -46 -41 -91 -82 -100 -90 -9 -8 -56 -51 -106 -95
-49 -44 -93 -85 -99 -91 -5 -6 -53 -48 -105 -95 -114 -102 -98 -87 -206 -185
-49 -45 -107 -96 -128 -115 -22 -19 -53 -47 -71 -64 -17 -16 -64 -59 -104 -95
-41 -36 -86 -76 -100 -90 -14 -14 -69 -63 -121 -110 -52 -47 -101 -92 -110
-100 -9 -8 -47 -43 -85 -76 -39 -34 -82 -73 -96 -85 -14 -13 -68 -62 -119
-109 -52 -47 -101 -92 -110 -100 -8 -8 -49 -44 -89 -80 -41 -36 -88 -78 -106
-95 -41 -39 -87 -80 -270 -244 -83 -74 -177 -160 -210 -190 -33 -31 -101 -92
-150 -136 -49 -44 -96 -87 -105 -95 -9 -8 -56 -51 -106 -95 -49 -44 -91 -82
-94 -85 -3 -3 -54 -50 -115 -104 -60 -55 -150 -136 -199 -180 -49 -45 -94 -85
-100 -91 -6 -5 -56 -50 -111 -100 -55 -49 -105 -94 -111 -100 -6 -5 -51 -46
-100 -90 -49 -44 -113 -103 -142 -130 l-53 -50 183 -179 c101 -98 323 -315
493 -481 663 -646 629 -614 641 -596 6 9 29 50 51 91 22 41 55 99 72 128 17
29 31 54 31 56 0 2 21 41 47 87 86 156 295 534 326 589 16 30 38 69 47 85 19
33 44 78 125 225 82 149 285 516 339 613 13 23 82 148 153 277 72 129 162 291
200 360 38 69 86 154 105 190 20 36 47 85 61 110 13 25 104 189 202 365 207
374 233 420 255 460 9 17 56 102 104 190 49 88 107 194 131 235 23 41 102 183
174 315 73 132 136 247 141 255 5 8 33 58 61 110 29 52 60 110 70 128 18 31
20 39 5 25z"/>
<path d="M6005 6331 c-6 -5 -147 -87 -315 -183 -490 -281 -1293 -740 -1323
-757 -16 -9 -36 -21 -45 -26 -9 -6 -99 -57 -200 -115 -100 -58 -197 -113 -215
-124 -18 -10 -120 -68 -227 -130 -107 -61 -203 -115 -212 -121 -9 -5 -34 -20
-55 -31 -21 -12 -110 -63 -198 -114 -88 -51 -185 -106 -216 -124 -31 -17 -242
-137 -468 -266 -385 -220 -411 -237 -408 -260 2 -14 20 -77 40 -140 351 -1132
410 -1320 413 -1317 1 1 5 38 9 81 4 43 8 86 10 95 1 9 6 54 10 101 3 47 8 99
9 115 2 17 7 64 11 105 4 41 9 86 10 100 2 14 6 54 9 90 10 94 12 102 43 136
15 17 127 116 248 219 121 104 222 192 225 195 3 3 34 30 70 60 36 30 67 57
70 60 3 3 36 32 75 65 38 33 83 72 100 86 16 15 167 145 335 289 168 145 332
287 365 316 33 29 71 62 85 74 14 12 36 31 50 43 14 12 54 47 90 77 36 30 135
116 221 190 86 74 169 146 185 160 16 14 112 97 214 185 102 88 212 183 244
210 33 28 64 55 70 60 6 6 58 51 116 100 58 50 107 92 110 95 7 8 426 370 454
392 11 10 16 18 11 18 -6 0 -15 -4 -20 -9z"/>
<path d="M2879 3075 c-1 -6 -2 -21 -4 -35 -1 -14 -5 -56 -9 -95 -4 -38 -9 -86
-11 -105 -7 -62 -17 -164 -20 -200 -5 -64 -17 -175 -21 -192 -1 -10 -1 -18 1
-18 3 0 282 381 298 407 7 11 -12 34 -65 85 -40 38 -94 91 -120 116 -27 25
-48 42 -49 37z"/>
<path d="M2010 2141 c-124 -58 -83 -234 54 -234 48 0 79 18 107 60 65 99 -52
226 -161 174z"/>
<path d="M1642 1783 c-84 -40 -91 -157 -14 -212 79 -56 191 -1 197 96 6 95
-94 159 -183 116z"/>
<path d="M1256 1408 c-44 -40 -55 -86 -33 -141 41 -96 173 -101 224 -9 48 86
-12 182 -113 182 -32 0 -49 -7 -78 -32z"/>
<path d="M942 1082 c-13 -2 -38 -19 -57 -38 -28 -28 -35 -43 -35 -74 0 -57 14
-85 55 -110 77 -47 171 -14 192 67 25 97 -51 173 -155 155z"/>
<path d="M255 654 c-93 -25 -189 -106 -227 -192 -28 -63 -32 -171 -10 -234 52
-145 180 -231 335 -224 235 10 384 251 287 462 -54 118 -157 185 -289 190 -42
2 -85 0 -96 -2z"/>
</g>
</svg>
