<svg width="84" height="23" viewBox="0 0 84 23" fill="none" xmlns="http://www.w3.org/2000/svg">
<path d="M10.707 10.3828H3.69922V15.6328H11.8906V18H0.734375V0.9375H11.8086V3.32812H3.69922V8.03906H10.707V10.3828ZM18.582 9.49219L20.9961 5.32031H24.1602L20.2812 11.5664L24.2891 18H21.1484L18.6172 13.6641L16.0977 18H12.9336L16.9414 11.5664L13.0742 5.32031H16.2148L18.582 9.49219ZM37.2031 11.7891C37.2031 13.75 36.7578 15.3164 35.8672 16.4883C34.9766 17.6523 33.7812 18.2344 32.2812 18.2344C30.8906 18.2344 29.7773 17.7773 28.9414 16.8633V22.875H26.0938V5.32031H28.7188L28.8359 6.60938C29.6719 5.59375 30.8086 5.08594 32.2461 5.08594C33.793 5.08594 35.0039 5.66406 35.8789 6.82031C36.7617 7.96875 37.2031 9.56641 37.2031 11.6133V11.7891ZM34.3672 11.543C34.3672 10.2773 34.1133 9.27344 33.6055 8.53125C33.1055 7.78906 32.3867 7.41797 31.4492 7.41797C30.2852 7.41797 29.4492 7.89844 28.9414 8.85938V14.4844C29.457 15.4688 30.3008 15.9609 31.4727 15.9609C32.3789 15.9609 33.0859 15.5977 33.5938 14.8711C34.1094 14.1367 34.3672 13.0273 34.3672 11.543ZM46.2617 7.92188C45.8867 7.85938 45.5 7.82812 45.1016 7.82812C43.7969 7.82812 42.918 8.32812 42.4648 9.32812V18H39.6172V5.32031H42.3359L42.4062 6.73828C43.0938 5.63672 44.0469 5.08594 45.2656 5.08594C45.6719 5.08594 46.0078 5.14062 46.2734 5.25L46.2617 7.92188ZM53.4102 18.2344C51.6055 18.2344 50.1406 17.668 49.0156 16.5352C47.8984 15.3945 47.3398 13.8789 47.3398 11.9883V11.6367C47.3398 10.3711 47.582 9.24219 48.0664 8.25C48.5586 7.25 49.2461 6.47266 50.1289 5.91797C51.0117 5.36328 51.9961 5.08594 53.082 5.08594C54.8086 5.08594 56.1406 5.63672 57.0781 6.73828C58.0234 7.83984 58.4961 9.39844 58.4961 11.4141V12.5625H50.2109C50.2969 13.6094 50.6445 14.4375 51.2539 15.0469C51.8711 15.6562 52.6445 15.9609 53.5742 15.9609C54.8789 15.9609 55.9414 15.4336 56.7617 14.3789L58.2969 15.8438C57.7891 16.6016 57.1094 17.1914 56.2578 17.6133C55.4141 18.0273 54.4648 18.2344 53.4102 18.2344ZM53.0703 7.37109C52.2891 7.37109 51.6562 7.64453 51.1719 8.19141C50.6953 8.73828 50.3906 9.5 50.2578 10.4766H55.6836V10.2656C55.6211 9.3125 55.3672 8.59375 54.9219 8.10938C54.4766 7.61719 53.8594 7.37109 53.0703 7.37109ZM67.8242 14.5547C67.8242 14.0469 67.6133 13.6602 67.1914 13.3945C66.7773 13.1289 66.0859 12.8945 65.1172 12.6914C64.1484 12.4883 63.3398 12.2305 62.6914 11.918C61.2695 11.2305 60.5586 10.2344 60.5586 8.92969C60.5586 7.83594 61.0195 6.92188 61.9414 6.1875C62.8633 5.45312 64.0352 5.08594 65.457 5.08594C66.9727 5.08594 68.1953 5.46094 69.125 6.21094C70.0625 6.96094 70.5312 7.93359 70.5312 9.12891H67.6836C67.6836 8.58203 67.4805 8.12891 67.0742 7.76953C66.668 7.40234 66.1289 7.21875 65.457 7.21875C64.832 7.21875 64.3203 7.36328 63.9219 7.65234C63.5312 7.94141 63.3359 8.32812 63.3359 8.8125C63.3359 9.25 63.5195 9.58984 63.8867 9.83203C64.2539 10.0742 64.9961 10.3203 66.1133 10.5703C67.2305 10.8125 68.1055 11.1055 68.7383 11.4492C69.3789 11.7852 69.8516 12.1914 70.1562 12.668C70.4688 13.1445 70.625 13.7227 70.625 14.4023C70.625 15.543 70.1523 16.4688 69.207 17.1797C68.2617 17.8828 67.0234 18.2344 65.4922 18.2344C64.4531 18.2344 63.5273 18.0469 62.7148 17.6719C61.9023 17.2969 61.2695 16.7812 60.8164 16.125C60.3633 15.4688 60.1367 14.7617 60.1367 14.0039H62.9023C62.9414 14.6758 63.1953 15.1953 63.6641 15.5625C64.1328 15.9219 64.7539 16.1016 65.5273 16.1016C66.2773 16.1016 66.8477 15.9609 67.2383 15.6797C67.6289 15.3906 67.8242 15.0156 67.8242 14.5547ZM80.2227 14.5547C80.2227 14.0469 80.0117 13.6602 79.5898 13.3945C79.1758 13.1289 78.4844 12.8945 77.5156 12.6914C76.5469 12.4883 75.7383 12.2305 75.0898 11.918C73.668 11.2305 72.957 10.2344 72.957 8.92969C72.957 7.83594 73.418 6.92188 74.3398 6.1875C75.2617 5.45312 76.4336 5.08594 77.8555 5.08594C79.3711 5.08594 80.5938 5.46094 81.5234 6.21094C82.4609 6.96094 82.9297 7.93359 82.9297 9.12891H80.082C80.082 8.58203 79.8789 8.12891 79.4727 7.76953C79.0664 7.40234 78.5273 7.21875 77.8555 7.21875C77.2305 7.21875 76.7188 7.36328 76.3203 7.65234C75.9297 7.94141 75.7344 8.32812 75.7344 8.8125C75.7344 9.25 75.918 9.58984 76.2852 9.83203C76.6523 10.0742 77.3945 10.3203 78.5117 10.5703C79.6289 10.8125 80.5039 11.1055 81.1367 11.4492C81.7773 11.7852 82.25 12.1914 82.5547 12.668C82.8672 13.1445 83.0234 13.7227 83.0234 14.4023C83.0234 15.543 82.5508 16.4688 81.6055 17.1797C80.6602 17.8828 79.4219 18.2344 77.8906 18.2344C76.8516 18.2344 75.9258 18.0469 75.1133 17.6719C74.3008 17.2969 73.668 16.7812 73.2148 16.125C72.7617 15.4688 72.5352 14.7617 72.5352 14.0039H75.3008C75.3398 14.6758 75.5938 15.1953 76.0625 15.5625C76.5312 15.9219 77.1523 16.1016 77.9258 16.1016C78.6758 16.1016 79.2461 15.9609 79.6367 15.6797C80.0273 15.3906 80.2227 15.0156 80.2227 14.5547Z" fill="#FEFEFE"/>
</svg>
