<svg width="121" height="32" viewBox="0 0 121 32" fill="none" xmlns="http://www.w3.org/2000/svg">
<path d="M0.00369499 30.5924C0.0306391 30.974 0.203566 31.3314 0.487644 31.5926C0.771722 31.8538 1.14584 31.9994 1.53465 32C1.57075 32 1.60696 31.9988 1.6433 31.9963C1.94654 31.9756 2.23673 31.8668 2.47717 31.6839C2.71761 31.5009 2.89751 31.2518 2.9941 30.9683C3.0907 30.6847 3.09966 30.3793 3.01985 30.0907C2.94004 29.8021 2.77505 29.5433 2.54574 29.347C2.31643 29.1506 2.0331 29.0256 1.73158 28.9877C1.43005 28.9499 1.12388 29.0008 0.851787 29.1341C0.579688 29.2674 0.353882 29.4772 0.202923 29.7367C0.0519635 29.9963 -0.0173682 30.2941 0.00369499 30.5925V30.5924Z" fill="#1890FF"/>
<path d="M4.46178 28.1858C4.78504 28.1858 5.04709 27.928 5.04709 27.6099C5.04709 27.2919 4.78504 27.034 4.46178 27.034C4.13852 27.034 3.87646 27.2919 3.87646 27.6099C3.87646 27.928 4.13852 28.1858 4.46178 28.1858Z" fill="#1890FF"/>
<path d="M6.11729 26.5569C6.44055 26.5569 6.70261 26.2991 6.70261 25.9811C6.70261 25.663 6.44055 25.4052 6.11729 25.4052C5.79404 25.4052 5.53198 25.663 5.53198 25.9811C5.53198 26.2991 5.79404 26.5569 6.11729 26.5569Z" fill="#1890FF"/>
<path d="M7.35896 23.945C7.2771 24.0255 7.22134 24.1281 7.19875 24.2398C7.17616 24.3515 7.18775 24.4673 7.23205 24.5726C7.27635 24.6778 7.35137 24.7678 7.44762 24.831C7.54388 24.8943 7.65705 24.9281 7.77281 24.9281C7.88858 24.9281 8.00175 24.8943 8.098 24.831C8.19426 24.7678 8.26928 24.6778 8.31358 24.5726C8.35788 24.4673 8.36946 24.3515 8.34687 24.2398C8.32428 24.1281 8.26853 24.0255 8.18667 23.945C8.0769 23.837 7.92803 23.7763 7.77281 23.7763C7.61759 23.7763 7.46873 23.837 7.35896 23.945V23.945Z" fill="#1890FF"/>
<path d="M9.0142 22.316C8.93234 22.3966 8.8766 22.4992 8.85402 22.6109C8.83144 22.7226 8.84303 22.8384 8.88733 22.9436C8.93163 23.0489 9.00665 23.1388 9.10291 23.2021C9.19916 23.2654 9.31232 23.2991 9.42809 23.2991C9.54385 23.2991 9.65701 23.2654 9.75327 23.2021C9.84952 23.1388 9.92454 23.0489 9.96884 22.9436C10.0131 22.8384 10.0247 22.7226 10.0022 22.6109C9.97957 22.4992 9.92383 22.3966 9.84198 22.316C9.78763 22.2625 9.7231 22.2201 9.65208 22.1912C9.58107 22.1622 9.50495 22.1473 9.42809 22.1473C9.35122 22.1473 9.27511 22.1622 9.20409 22.1912C9.13308 22.2201 9.06855 22.2625 9.0142 22.316V22.316Z" fill="#1890FF"/>
<path d="M9.66455 13.2631L11.7737 20.064L12.1176 16.5748C12.1321 16.4271 12.204 16.2907 12.3182 16.1939L27.6618 2.9548L9.66455 13.2631Z" fill="#1890FF"/>
<path d="M13.562 16.6601L19.5474 22.4932L32.0001 0L13.562 16.6601Z" fill="#1890FF"/>
<path d="M12.866 20.9175L14.2753 18.9762L13.1639 17.893L12.866 20.9175Z" fill="#1890FF"/>
<path d="M9.06236 12.2751L31.9999 0L5.54712 8.84927L9.06236 12.2751Z" fill="#1890FF"/>
<path d="M47.707 16.3828H40.6992V21.6328H48.8906V24H37.7344V6.9375H48.8086V9.32812H40.6992V14.0391H47.707V16.3828ZM55.582 15.4922L57.9961 11.3203H61.1602L57.2812 17.5664L61.2891 24H58.1484L55.6172 19.6641L53.0977 24H49.9336L53.9414 17.5664L50.0742 11.3203H53.2148L55.582 15.4922ZM74.2031 17.7891C74.2031 19.75 73.7578 21.3164 72.8672 22.4883C71.9766 23.6523 70.7812 24.2344 69.2812 24.2344C67.8906 24.2344 66.7773 23.7773 65.9414 22.8633V28.875H63.0938V11.3203H65.7188L65.8359 12.6094C66.6719 11.5938 67.8086 11.0859 69.2461 11.0859C70.793 11.0859 72.0039 11.6641 72.8789 12.8203C73.7617 13.9688 74.2031 15.5664 74.2031 17.6133V17.7891ZM71.3672 17.543C71.3672 16.2773 71.1133 15.2734 70.6055 14.5312C70.1055 13.7891 69.3867 13.418 68.4492 13.418C67.2852 13.418 66.4492 13.8984 65.9414 14.8594V20.4844C66.457 21.4688 67.3008 21.9609 68.4727 21.9609C69.3789 21.9609 70.0859 21.5977 70.5938 20.8711C71.1094 20.1367 71.3672 19.0273 71.3672 17.543ZM83.2617 13.9219C82.8867 13.8594 82.5 13.8281 82.1016 13.8281C80.7969 13.8281 79.918 14.3281 79.4648 15.3281V24H76.6172V11.3203H79.3359L79.4062 12.7383C80.0938 11.6367 81.0469 11.0859 82.2656 11.0859C82.6719 11.0859 83.0078 11.1406 83.2734 11.25L83.2617 13.9219ZM90.4102 24.2344C88.6055 24.2344 87.1406 23.668 86.0156 22.5352C84.8984 21.3945 84.3398 19.8789 84.3398 17.9883V17.6367C84.3398 16.3711 84.582 15.2422 85.0664 14.25C85.5586 13.25 86.2461 12.4727 87.1289 11.918C88.0117 11.3633 88.9961 11.0859 90.082 11.0859C91.8086 11.0859 93.1406 11.6367 94.0781 12.7383C95.0234 13.8398 95.4961 15.3984 95.4961 17.4141V18.5625H87.2109C87.2969 19.6094 87.6445 20.4375 88.2539 21.0469C88.8711 21.6562 89.6445 21.9609 90.5742 21.9609C91.8789 21.9609 92.9414 21.4336 93.7617 20.3789L95.2969 21.8438C94.7891 22.6016 94.1094 23.1914 93.2578 23.6133C92.4141 24.0273 91.4648 24.2344 90.4102 24.2344ZM90.0703 13.3711C89.2891 13.3711 88.6562 13.6445 88.1719 14.1914C87.6953 14.7383 87.3906 15.5 87.2578 16.4766H92.6836V16.2656C92.6211 15.3125 92.3672 14.5938 91.9219 14.1094C91.4766 13.6172 90.8594 13.3711 90.0703 13.3711ZM104.824 20.5547C104.824 20.0469 104.613 19.6602 104.191 19.3945C103.777 19.1289 103.086 18.8945 102.117 18.6914C101.148 18.4883 100.34 18.2305 99.6914 17.918C98.2695 17.2305 97.5586 16.2344 97.5586 14.9297C97.5586 13.8359 98.0195 12.9219 98.9414 12.1875C99.8633 11.4531 101.035 11.0859 102.457 11.0859C103.973 11.0859 105.195 11.4609 106.125 12.2109C107.062 12.9609 107.531 13.9336 107.531 15.1289H104.684C104.684 14.582 104.48 14.1289 104.074 13.7695C103.668 13.4023 103.129 13.2188 102.457 13.2188C101.832 13.2188 101.32 13.3633 100.922 13.6523C100.531 13.9414 100.336 14.3281 100.336 14.8125C100.336 15.25 100.52 15.5898 100.887 15.832C101.254 16.0742 101.996 16.3203 103.113 16.5703C104.23 16.8125 105.105 17.1055 105.738 17.4492C106.379 17.7852 106.852 18.1914 107.156 18.668C107.469 19.1445 107.625 19.7227 107.625 20.4023C107.625 21.543 107.152 22.4688 106.207 23.1797C105.262 23.8828 104.023 24.2344 102.492 24.2344C101.453 24.2344 100.527 24.0469 99.7148 23.6719C98.9023 23.2969 98.2695 22.7812 97.8164 22.125C97.3633 21.4688 97.1367 20.7617 97.1367 20.0039H99.9023C99.9414 20.6758 100.195 21.1953 100.664 21.5625C101.133 21.9219 101.754 22.1016 102.527 22.1016C103.277 22.1016 103.848 21.9609 104.238 21.6797C104.629 21.3906 104.824 21.0156 104.824 20.5547ZM117.223 20.5547C117.223 20.0469 117.012 19.6602 116.59 19.3945C116.176 19.1289 115.484 18.8945 114.516 18.6914C113.547 18.4883 112.738 18.2305 112.09 17.918C110.668 17.2305 109.957 16.2344 109.957 14.9297C109.957 13.8359 110.418 12.9219 111.34 12.1875C112.262 11.4531 113.434 11.0859 114.855 11.0859C116.371 11.0859 117.594 11.4609 118.523 12.2109C119.461 12.9609 119.93 13.9336 119.93 15.1289H117.082C117.082 14.582 116.879 14.1289 116.473 13.7695C116.066 13.4023 115.527 13.2188 114.855 13.2188C114.23 13.2188 113.719 13.3633 113.32 13.6523C112.93 13.9414 112.734 14.3281 112.734 14.8125C112.734 15.25 112.918 15.5898 113.285 15.832C113.652 16.0742 114.395 16.3203 115.512 16.5703C116.629 16.8125 117.504 17.1055 118.137 17.4492C118.777 17.7852 119.25 18.1914 119.555 18.668C119.867 19.1445 120.023 19.7227 120.023 20.4023C120.023 21.543 119.551 22.4688 118.605 23.1797C117.66 23.8828 116.422 24.2344 114.891 24.2344C113.852 24.2344 112.926 24.0469 112.113 23.6719C111.301 23.2969 110.668 22.7812 110.215 22.125C109.762 21.4688 109.535 20.7617 109.535 20.0039H112.301C112.34 20.6758 112.594 21.1953 113.062 21.5625C113.531 21.9219 114.152 22.1016 114.926 22.1016C115.676 22.1016 116.246 21.9609 116.637 21.6797C117.027 21.3906 117.223 21.0156 117.223 20.5547Z" fill="#FEFEFE"/>
</svg>
